<?xml version="1.0" encoding="utf-8"?>
<!-- Generator: Adobe Illustrator 26.0.2, SVG Export Plug-In . SVG Version: 6.00 Build 0)  -->
<svg version="1.1" id="Capa_1" xmlns="http://www.w3.org/2000/svg" xmlns:xlink="http://www.w3.org/1999/xlink" x="0px" y="0px"
	 viewBox="0 0 339.5 352.8" style="enable-background:new 0 0 339.5 352.8;" xml:space="preserve">
<style type="text/css">
	.st0{fill:none;stroke:#333333;}
	.st1{fill-rule:evenodd;clip-rule:evenodd;fill:url(#SVGID_1_);}
	.st2{fill:#333333;}
</style>
<linearGradient id="SVGID_1_" gradientUnits="userSpaceOnUse" x1="-311.5753" y1="397.3715" x2="68.7137" y2="397.3715" gradientTransform="matrix(1 0 0 -1 -8.3622 895.8799)">
	<stop  offset="0" style="stop-color:#93BEA1"/>
	<stop  offset="0.9951" style="stop-color:#4C909F"/>
	<stop  offset="1" style="stop-color:#4C909F"/>
</linearGradient>
<path class="st1" d="M-124.6,759.7c-2.1,0-2.1-3,0-3h1v-35h22.4v35h1.4v-36.2h-8.8v-24.4h25.5v60.5h1c2.1,0,2.1,3,0,3H-124.6z
	 M22,712.5c-3.3-1.4-6.2-3.4-8.8-5.9c-2.5-2.5-4.5-5.5-5.9-8.8c-1.4-3.4-2.2-7-2.2-10.7c0-3.7,0.7-7.3,2.2-10.7
	c1.4-3.3,3.4-6.2,5.9-8.8c2.5-2.5,5.5-4.5,8.8-5.9c3.4-1.4,7-2.2,10.7-2.2s7.3,0.7,10.7,2.2c3.3,1.4,6.2,3.4,8.8,5.9
	c2.5,2.5,4.5,5.5,5.9,8.8c1.4,3.4,2.2,7,2.2,10.7c0,3.7-0.7,7.3-2.2,10.7c-1.4,3.3-3.4,6.2-5.9,8.8c-2.5,2.5-5.5,4.5-8.8,5.9
	c-3.4,1.4-7,2.2-10.7,2.2C29,714.7,25.4,713.9,22,712.5z M31.2,709.2c0.5,0,0.9,0.1,1.4,0.1c0.5,0,0.9,0,1.4-0.1
	c1.4-2.6,2.4-6.3,3.2-11h-9.2C28.8,702.8,29.9,706.5,31.2,709.2z M40.2,707.9c4.9-1.8,9-5.2,11.6-9.7h-9
	C42.2,702.1,41.3,705.4,40.2,707.9z M25.1,707.9c-1.1-2.5-1.9-5.8-2.6-9.7h-9C16.1,702.6,20.2,706.1,25.1,707.9z M43.7,687.1
	c0,1.6-0.1,3.5-0.3,5.5h10.6c0.5-1.8,0.7-3.7,0.7-5.5c0-1.9-0.2-3.7-0.7-5.5H43.5C43.7,683.5,43.7,685.5,43.7,687.1z M27.1,687.1
	c0,1.6,0.1,3.5,0.3,5.5H38c0.2-2,0.3-4,0.3-5.5c0-1.6-0.1-3.5-0.3-5.5H27.4C27.2,683.5,27.1,685.5,27.1,687.1z M10.5,687.1
	c0,1.9,0.2,3.7,0.7,5.5h10.6c-0.2-2-0.3-4-0.3-5.5c0-1.6,0.1-3.6,0.3-5.5H11.3C10.8,683.4,10.5,685.2,10.5,687.1z M42.8,676h9
	c-2.6-4.5-6.7-7.9-11.6-9.7C41.3,668.8,42.2,672.1,42.8,676z M31.2,665c-1.4,2.6-2.4,6.4-3.2,11h9.2c-0.7-4.7-1.8-8.4-3.2-11
	c-0.5,0-0.9-0.1-1.4-0.1C32.2,665,31.7,665,31.2,665z M13.5,676h9c0.6-3.9,1.5-7.2,2.6-9.7C20.2,668.1,16.1,671.5,13.5,676z
	 M-301.5,659.5L-301.5,659.5v-10.9l14.8-9.4v3.8c0,4.1-1.5,8.1-4.3,11.1C-293.7,657.2-297.5,659.1-301.5,659.5L-301.5,659.5z
	 M-305.2,659.5c-4-0.4-7.8-2.4-10.5-5.4c-2.8-3.1-4.3-7-4.3-11.1v-3.8l14.8,9.4L-305.2,659.5L-305.2,659.5L-305.2,659.5z
	 M-301.5,644.3v-13.2l14.8-10v13.8L-301.5,644.3L-301.5,644.3L-301.5,644.3z M-305.2,644.3l-14.8-9.4V621l14.8,10L-305.2,644.3
	L-305.2,644.3L-305.2,644.3z M-301.5,626.6V612h-3.7v-14.2c0-0.5,0.4-0.9,0.9-0.9h1.8c0.5,0,0.9,0.4,0.9,0.9V612l11.1-6.9v-7.3
	c0-0.5,0.4-0.9,0.9-0.9h1.8c0.5,0,0.9,0.4,0.9,0.9v18.8L-301.5,626.6L-301.5,626.6L-301.5,626.6z M-305.2,626.6l-14.8-10v-18.8
	c0-0.5,0.4-0.9,0.9-0.9h1.8c0.5,0,0.9,0.4,0.9,0.9v7.3l11.1,6.9L-305.2,626.6L-305.2,626.6L-305.2,626.6z M-197.8,293.2l-6.7-11.2
	l6.9-10.6v4.8c0.6,0,1.2-0.1,1.9-0.1l0.1,0h0c2.7-0.1,5.7-0.3,8.5-0.8c3.3-0.6,5.9-1.6,8.1-3l-8.8,15.5c-1.1,0.9-4.1,1.1-6.5,1.1
	c-1.1,0-2.4,0-3.4-0.1L-197.8,293.2L-197.8,293.2L-197.8,293.2z M-209.7,290.2h-11.2c-0.1,0-0.3,0-0.6-0.1c-0.7-0.1-1.6-0.1-2.6-0.6
	c-1.1-0.5-2-1.5-2.4-2.9c-0.6-2.3,0-5.9,1.9-10.6h15.1L-209.7,290.2L-209.7,290.2L-209.7,290.2z M-236.2,270.7
	c-0.3-1.9,2.4-6.3,3.7-8.5l0,0c0.1-0.2,0.3-0.4,0.4-0.6l-3.7-2.2l13-0.2l5.8,11l-4.1-2.2c-0.2,0.5-0.5,0.9-0.7,1.4l0,0.1
	c-2.6,4.8-5.7,10.9-5.4,16.6l0,0L-236.2,270.7z M-188.8,275.1L-188.8,275.1c-0.2-0.3-0.5-0.9-1-1.8c-1.2-2.1-3.3-5.9-6.4-11.2
	l12.3-6.9l5.6,9.7c0,0.1,0.1,0.1,0.1,0.2c0.5,1,1.9,3.5-0.3,6.1C-180.1,272.9-183.2,274.1-188.8,275.1L-188.8,275.1z M-215.1,257.4
	l-12.1-7.1l5.6-9.7c0.1-0.1,0.1-0.2,0.2-0.3c0.6-0.9,1.9-2.8,4.4-2.8c0.4,0,0.8,0,1.1,0.1c2.1,0.5,4.9,2.8,8.4,6.9
	c-0.2,0.3-0.5,0.8-0.9,1.6l0,0C-209.6,248.2-211.9,252.1-215.1,257.4L-215.1,257.4L-215.1,257.4z M-193.7,254.6l-12.5-0.6l4.1-2.4
	c-0.2-0.4-0.5-0.7-0.7-1.1c-3-4.7-6.8-10.4-11.9-13l17.7-0.2c1.6,0.6,3.8,4.5,5.1,6.8l0,0c0.3,0.5,0.5,0.8,0.7,1.1l3.9-2
	L-193.7,254.6L-193.7,254.6L-193.7,254.6z"/>
<g>
	<g>
		<polygon class="st2" points="338.5,352.3 277.2,3.7 201.9,195.7 201,195.3 277.6,0 277.9,1.8 339.5,352.1 		"/>
	</g>
	<g>
		
			<rect x="-40.1" y="114.4" transform="matrix(0.7726 -0.6349 0.6349 0.7726 -41.3275 114.426)" class="st2" width="358.3" height="1"/>
	</g>
	<g>
		<path class="st2" d="M338.6,352.8L0,228.7l201.6-33.7l0.2,0.2L339.2,352L338.6,352.8z M3.9,229l333.2,122.2L201.3,196L3.9,229z"/>
	</g>
</g>
</svg>
